<svg width="270" height="192" viewBox="0 0 270 192" fill="none" xmlns="http://www.w3.org/2000/svg">
<rect width="270" height="192" fill="white"/>
<path fill-rule="evenodd" clip-rule="evenodd" d="M203 75L176.574 84.95V65.05L203 75ZM183.225 27.6223L171.632 53.2069L157.456 39.1357L183.225 27.6223ZM135.5 8L145.524 34.2286H125.476L135.5 8ZM87.7687 27.6223L113.544 39.1357L99.368 53.2069L87.7687 27.6223ZM68 75L94.4244 65.05V84.95L68 75ZM87.7687 122.371L99.368 96.7931L113.544 110.864L87.7687 122.371ZM135.5 142L125.476 115.771H145.524L135.5 142ZM183.225 122.371L157.456 110.864L171.632 96.7931L183.225 122.371ZM100.574 75C100.574 55.8539 116.211 40.3328 135.5 40.3328C154.788 40.3328 170.425 55.8539 170.425 75C170.425 94.1461 154.788 109.667 135.5 109.667C116.211 109.667 100.574 94.1461 100.574 75Z" fill="url(#paint0_linear_2_13)"/>
<defs>
<linearGradient id="paint0_linear_2_13" x1="68.1214" y1="7.8795" x2="202.118" y2="142.876" gradientUnits="userSpaceOnUse">
<stop stop-color="#FFC000"/>
<stop offset="1" stop-color="#FFA300"/>
</linearGradient>
</defs>
</svg>
