<svg width="270" height="192" viewBox="0 0 270 192" fill="none" xmlns="http://www.w3.org/2000/svg">
<g clip-path="url(#clip0_2_25)">
<rect width="270" height="192" fill="white"/>
<g filter="url(#filter0_d_2_25)">
<path fill-rule="evenodd" clip-rule="evenodd" d="M172 75L145.574 84.95V65.05L172 75ZM152.225 27.6223L140.632 53.2069L126.456 39.1357L152.225 27.6223ZM104.5 8L114.524 34.2286H94.4756L104.5 8ZM56.7687 27.6223L82.5445 39.1357L68.368 53.2069L56.7687 27.6223ZM37 75L63.4244 65.05V84.95L37 75ZM56.7687 122.371L68.368 96.7931L82.5445 110.864L56.7687 122.371ZM104.5 142L94.4756 115.771H114.524L104.5 142ZM152.225 122.371L126.456 110.864L140.632 96.7931L152.225 122.371ZM69.5743 75C69.5743 55.8539 85.211 40.3328 104.5 40.3328C123.788 40.3328 139.425 55.8539 139.425 75C139.425 94.1461 123.788 109.667 104.5 109.667C85.211 109.667 69.5743 94.1461 69.5743 75Z" fill="url(#paint0_linear_2_25)"/>
</g>
<g filter="url(#filter1_d_2_25)">
<path fill-rule="evenodd" clip-rule="evenodd" d="M184.311 57C196.665 57 207.266 64.6045 211.793 75.4425L213.196 82.4797L217.983 83.9834C227.396 88.0143 234 97.4504 234 108.448C234 121.279 225.011 131.985 213.059 134.46L208.13 134.964V135H207.775H207.772H143.881H142.655V134.875L138.867 134.488C127.528 132.139 119 121.984 119 109.811C119 99.3775 125.266 90.4256 134.196 86.6015L138.081 85.381L139.187 79.8361C142.045 72.9924 148.739 68.1901 156.541 68.1901L161.044 69.1108L163.221 65.8441C168.618 60.3798 176.074 57 184.311 57Z" fill="url(#paint1_linear_2_25)"/>
</g>
</g>
<defs>
<filter id="filter0_d_2_25" x="27" y="-2" width="155" height="154" filterUnits="userSpaceOnUse" color-interpolation-filters="sRGB">
<feFlood flood-opacity="0" result="BackgroundImageFix"/>
<feColorMatrix in="SourceAlpha" type="matrix" values="0 0 0 0 0 0 0 0 0 0 0 0 0 0 0 0 0 0 127 0" result="hardAlpha"/>
<feOffset/>
<feGaussianBlur stdDeviation="5"/>
<feComposite in2="hardAlpha" operator="out"/>
<feColorMatrix type="matrix" values="0 0 0 0 1 0 0 0 0 1 0 0 0 0 1 0 0 0 1 0"/>
<feBlend mode="normal" in2="BackgroundImageFix" result="effect1_dropShadow_2_25"/>
<feBlend mode="normal" in="SourceGraphic" in2="effect1_dropShadow_2_25" result="shape"/>
</filter>
<filter id="filter1_d_2_25" x="109" y="47" width="135" height="98" filterUnits="userSpaceOnUse" color-interpolation-filters="sRGB">
<feFlood flood-opacity="0" result="BackgroundImageFix"/>
<feColorMatrix in="SourceAlpha" type="matrix" values="0 0 0 0 0 0 0 0 0 0 0 0 0 0 0 0 0 0 127 0" result="hardAlpha"/>
<feOffset/>
<feGaussianBlur stdDeviation="5"/>
<feComposite in2="hardAlpha" operator="out"/>
<feColorMatrix type="matrix" values="0 0 0 0 1 0 0 0 0 1 0 0 0 0 1 0 0 0 1 0"/>
<feBlend mode="normal" in2="BackgroundImageFix" result="effect1_dropShadow_2_25"/>
<feBlend mode="normal" in="SourceGraphic" in2="effect1_dropShadow_2_25" result="shape"/>
</filter>
<linearGradient id="paint0_linear_2_25" x1="37.1214" y1="7.8795" x2="171.118" y2="142.876" gradientUnits="userSpaceOnUse">
<stop stop-color="#FFC000"/>
<stop offset="1" stop-color="#FFA300"/>
</linearGradient>
<linearGradient id="paint1_linear_2_25" x1="140.812" y1="42.2051" x2="213.284" y2="149.052" gradientUnits="userSpaceOnUse">
<stop stop-color="#D9D9D9"/>
<stop offset="1" stop-color="#BFBFBF"/>
</linearGradient>
<clipPath id="clip0_2_25">
<rect width="270" height="192" fill="white"/>
</clipPath>
</defs>
</svg>
