<svg width="270" height="192" viewBox="0 0 270 192" fill="none" xmlns="http://www.w3.org/2000/svg">
<g clip-path="url(#clip0_2_38)">
<rect width="270" height="192" fill="white"/>
<g filter="url(#filter0_d_2_38)">
<path fill-rule="evenodd" clip-rule="evenodd" d="M182 75L155.574 84.95V65.05L182 75ZM162.225 27.6223L150.632 53.2069L136.456 39.1357L162.225 27.6223ZM114.5 8L124.524 34.2286H104.476L114.5 8ZM66.7687 27.6223L92.5445 39.1357L78.368 53.2069L66.7687 27.6223ZM47 75L73.4244 65.05V84.95L47 75ZM66.7687 122.371L78.368 96.7931L92.5445 110.864L66.7687 122.371ZM114.5 142L104.476 115.771H124.524L114.5 142ZM162.225 122.371L136.456 110.864L150.632 96.7931L162.225 122.371ZM79.5743 75C79.5743 55.8539 95.211 40.3328 114.5 40.3328C133.788 40.3328 149.425 55.8539 149.425 75C149.425 94.1461 133.788 109.667 114.5 109.667C95.211 109.667 79.5743 94.1461 79.5743 75Z" fill="url(#paint0_linear_2_38)"/>
</g>
<g filter="url(#filter1_d_2_38)">
<path fill-rule="evenodd" clip-rule="evenodd" d="M186.162 30C200.586 30 212.28 41.6902 212.28 56.1109C212.28 63.3212 209.356 69.8488 204.63 74.5741L204.349 74.7645L206.38 75.8675C215.999 82.3648 222.325 93.3672 222.325 105.847C222.325 125.814 206.134 142 186.162 142C166.19 142 150 125.814 150 105.847C150 93.3672 156.325 82.3648 165.944 75.8675L167.978 74.7643L167.695 74.5741C162.969 69.8488 160.045 63.3212 160.045 56.1109C160.045 41.6902 171.739 30 186.162 30Z" fill="url(#paint1_linear_2_38)"/>
<path fill-rule="evenodd" clip-rule="evenodd" d="M174.384 50.6642C174.384 49.0664 175.679 47.7712 177.277 47.7712C178.874 47.7712 180.17 49.0664 180.17 50.6642C180.17 52.262 178.874 53.5572 177.277 53.5572C175.679 53.5572 174.384 52.262 174.384 50.6642Z" fill="#404040"/>
<path fill-rule="evenodd" clip-rule="evenodd" d="M192.155 50.2509C192.155 48.6532 193.451 47.3579 195.048 47.3579C196.645 47.3579 197.941 48.6532 197.941 50.2509C197.941 51.8487 196.645 53.1439 195.048 53.1439C193.451 53.1439 192.155 51.8487 192.155 50.2509Z" fill="#404040"/>
</g>
<g filter="url(#filter2_d_2_38)">
<path fill-rule="evenodd" clip-rule="evenodd" d="M186.162 30C200.586 30 212.28 41.6902 212.28 56.1109C212.28 63.3212 209.356 69.8488 204.63 74.5741L204.349 74.7645L206.38 75.8675C215.999 82.3648 222.325 93.3672 222.325 105.847C222.325 125.814 206.134 142 186.162 142C166.19 142 150 125.814 150 105.847C150 93.3672 156.325 82.3648 165.944 75.8675L167.978 74.7643L167.695 74.5741C162.969 69.8488 160.045 63.3212 160.045 56.1109C160.045 41.6902 171.739 30 186.162 30Z" fill="url(#paint2_linear_2_38)"/>
<path fill-rule="evenodd" clip-rule="evenodd" d="M174.384 50.6642C174.384 49.0664 175.679 47.7712 177.277 47.7712C178.874 47.7712 180.17 49.0664 180.17 50.6642C180.17 52.262 178.874 53.5572 177.277 53.5572C175.679 53.5572 174.384 52.262 174.384 50.6642Z" fill="#404040"/>
<path fill-rule="evenodd" clip-rule="evenodd" d="M192.155 50.2509C192.155 48.6532 193.451 47.3579 195.048 47.3579C196.645 47.3579 197.941 48.6532 197.941 50.2509C197.941 51.8487 196.645 53.1439 195.048 53.1439C193.451 53.1439 192.155 51.8487 192.155 50.2509Z" fill="#404040"/>
</g>
</g>
<defs>
<filter id="filter0_d_2_38" x="37" y="-2" width="155" height="154" filterUnits="userSpaceOnUse" color-interpolation-filters="sRGB">
<feFlood flood-opacity="0" result="BackgroundImageFix"/>
<feColorMatrix in="SourceAlpha" type="matrix" values="0 0 0 0 0 0 0 0 0 0 0 0 0 0 0 0 0 0 127 0" result="hardAlpha"/>
<feOffset/>
<feGaussianBlur stdDeviation="5"/>
<feComposite in2="hardAlpha" operator="out"/>
<feColorMatrix type="matrix" values="0 0 0 0 1 0 0 0 0 1 0 0 0 0 1 0 0 0 1 0"/>
<feBlend mode="normal" in2="BackgroundImageFix" result="effect1_dropShadow_2_38"/>
<feBlend mode="normal" in="SourceGraphic" in2="effect1_dropShadow_2_38" result="shape"/>
</filter>
<filter id="filter1_d_2_38" x="140" y="20" width="92.3247" height="132" filterUnits="userSpaceOnUse" color-interpolation-filters="sRGB">
<feFlood flood-opacity="0" result="BackgroundImageFix"/>
<feColorMatrix in="SourceAlpha" type="matrix" values="0 0 0 0 0 0 0 0 0 0 0 0 0 0 0 0 0 0 127 0" result="hardAlpha"/>
<feOffset/>
<feGaussianBlur stdDeviation="5"/>
<feComposite in2="hardAlpha" operator="out"/>
<feColorMatrix type="matrix" values="0 0 0 0 1 0 0 0 0 1 0 0 0 0 1 0 0 0 1 0"/>
<feBlend mode="normal" in2="BackgroundImageFix" result="effect1_dropShadow_2_38"/>
<feBlend mode="normal" in="SourceGraphic" in2="effect1_dropShadow_2_38" result="shape"/>
</filter>
<filter id="filter2_d_2_38" x="140" y="20" width="92.3247" height="132" filterUnits="userSpaceOnUse" color-interpolation-filters="sRGB">
<feFlood flood-opacity="0" result="BackgroundImageFix"/>
<feColorMatrix in="SourceAlpha" type="matrix" values="0 0 0 0 0 0 0 0 0 0 0 0 0 0 0 0 0 0 127 0" result="hardAlpha"/>
<feOffset/>
<feGaussianBlur stdDeviation="5"/>
<feComposite in2="hardAlpha" operator="out"/>
<feColorMatrix type="matrix" values="0 0 0 0 1 0 0 0 0 1 0 0 0 0 1 0 0 0 1 0"/>
<feBlend mode="normal" in2="BackgroundImageFix" result="effect1_dropShadow_2_38"/>
<feBlend mode="normal" in="SourceGraphic" in2="effect1_dropShadow_2_38" result="shape"/>
</filter>
<linearGradient id="paint0_linear_2_38" x1="47.1214" y1="7.8795" x2="181.118" y2="142.876" gradientUnits="userSpaceOnUse">
<stop stop-color="#FFC000"/>
<stop offset="1" stop-color="#FFA300"/>
</linearGradient>
<linearGradient id="paint1_linear_2_38" x1="135.122" y1="53.0402" x2="237.203" y2="118.96" gradientUnits="userSpaceOnUse">
<stop stop-color="#C8C8D3"/>
<stop offset="1" stop-color="#B4C7E7"/>
</linearGradient>
<linearGradient id="paint2_linear_2_38" x1="135.122" y1="53.0402" x2="237.203" y2="118.96" gradientUnits="userSpaceOnUse">
<stop stop-color="#C8C8D3"/>
<stop offset="1" stop-color="#B4C7E7"/>
</linearGradient>
<clipPath id="clip0_2_38">
<rect width="270" height="192" fill="white"/>
</clipPath>
</defs>
</svg>
