<svg width="270" height="192" viewBox="0 0 270 192" fill="none" xmlns="http://www.w3.org/2000/svg">
<rect width="270" height="192" fill="white"/>
<g filter="url(#filter0_d_2_211)">
<path fill-rule="evenodd" clip-rule="evenodd" d="M122.756 24C138.978 24 152.897 33.9444 158.841 48.1171L160.683 57.3196L166.969 59.286C179.328 64.5572 188 76.8967 188 91.2787C188 108.058 176.197 122.057 160.503 125.294L154.031 125.952V126H153.565H153.562H69.6701H68.0606V125.836L63.0863 125.331C48.1976 122.259 37 108.979 37 93.0606C37 79.4167 45.2273 67.7104 56.9531 62.7096L62.0548 61.1136L63.5058 53.8625C67.2591 44.9131 76.0487 38.6332 86.2925 38.6332L92.2051 39.8372L95.0635 35.5654C102.151 28.4198 111.941 24 122.756 24Z" fill="url(#paint0_linear_2_211)"/>
</g>
<g filter="url(#filter1_d_2_211)">
<path fill-rule="evenodd" clip-rule="evenodd" d="M198.339 48.0726C199.466 48.3733 200.134 49.5208 199.83 50.6356L198.733 54.6582L205.142 56.9813C223.756 65.6476 235.167 84.7914 233.905 105.014L232.804 111.641L233.134 111.728L232.356 114.577L232.303 114.643L232.251 114.964L232.088 114.92L230.962 116.366C230.301 116.742 229.493 116.869 228.697 116.657L185.717 105.199L177.396 135.699L177.229 135.654L175.825 138.36C173.395 141.309 169.199 142.722 165.043 141.635C160.894 140.549 157.953 137.272 157.308 133.523L157.404 131.274L157.284 130.367L157.451 130.153L157.471 129.679L157.762 129.753L158.543 128.751C159.142 128.411 159.87 128.296 160.591 128.488C161.309 128.679 161.881 129.141 162.225 129.732L162.383 130.935L162.738 131.026C162.143 133.327 163.794 135.743 166.433 136.435C169.079 137.129 171.722 135.833 172.349 133.535L172.396 133.548L180.51 103.811L137.21 92.268C136.414 92.0557 135.781 91.545 135.401 90.8904L135.163 89.0818L135 89.0385L135.116 88.7277L135.106 88.6515L135.883 85.8032L136.172 85.8803L138.081 80.7327C146.848 62.3328 166.215 51.0532 186.674 52.3L194.641 53.5951L195.746 49.5467C196.049 48.4321 197.211 47.7721 198.339 48.0726Z" fill="url(#paint1_linear_2_211)"/>
</g>
<defs>
<filter id="filter0_d_2_211" x="27" y="14" width="171" height="122" filterUnits="userSpaceOnUse" color-interpolation-filters="sRGB">
<feFlood flood-opacity="0" result="BackgroundImageFix"/>
<feColorMatrix in="SourceAlpha" type="matrix" values="0 0 0 0 0 0 0 0 0 0 0 0 0 0 0 0 0 0 127 0" result="hardAlpha"/>
<feOffset/>
<feGaussianBlur stdDeviation="5"/>
<feComposite in2="hardAlpha" operator="out"/>
<feColorMatrix type="matrix" values="0 0 0 0 1 0 0 0 0 1 0 0 0 0 1 0 0 0 1 0"/>
<feBlend mode="normal" in2="BackgroundImageFix" result="effect1_dropShadow_2_211"/>
<feBlend mode="normal" in="SourceGraphic" in2="effect1_dropShadow_2_211" result="shape"/>
</filter>
<filter id="filter1_d_2_211" x="125" y="38" width="119" height="114" filterUnits="userSpaceOnUse" color-interpolation-filters="sRGB">
<feFlood flood-opacity="0" result="BackgroundImageFix"/>
<feColorMatrix in="SourceAlpha" type="matrix" values="0 0 0 0 0 0 0 0 0 0 0 0 0 0 0 0 0 0 127 0" result="hardAlpha"/>
<feOffset/>
<feGaussianBlur stdDeviation="5"/>
<feComposite in2="hardAlpha" operator="out"/>
<feColorMatrix type="matrix" values="0 0 0 0 1 0 0 0 0 1 0 0 0 0 1 0 0 0 1 0"/>
<feBlend mode="normal" in2="BackgroundImageFix" result="effect1_dropShadow_2_211"/>
<feBlend mode="normal" in="SourceGraphic" in2="effect1_dropShadow_2_211" result="shape"/>
</filter>
<linearGradient id="paint0_linear_2_211" x1="65.6403" y1="4.65285" x2="160.268" y2="144.734" gradientUnits="userSpaceOnUse">
<stop stop-color="#D9D9D9"/>
<stop offset="1" stop-color="#BFBFBF"/>
</linearGradient>
<linearGradient id="paint1_linear_2_211" x1="220.5" y1="156.76" x2="151.346" y2="34.189" gradientUnits="userSpaceOnUse">
<stop stop-color="#00B0F0"/>
<stop offset="1" stop-color="#8FAADC"/>
</linearGradient>
</defs>
</svg>
