<svg width="270" height="192" viewBox="0 0 270 192" fill="none" xmlns="http://www.w3.org/2000/svg">
<g clip-path="url(#clip0_2_667)">
<rect width="270" height="192" fill="white"/>
<g filter="url(#filter0_d_2_667)">
<path fill-rule="evenodd" clip-rule="evenodd" d="M97.2657 8C114.523 8 128.513 21.9864 128.513 39.2398C128.513 47.8665 125.015 55.6763 119.361 61.3298L119.025 61.5575L121.455 62.8772C132.964 70.6507 140.531 83.8143 140.531 98.745C140.531 122.634 121.161 142 97.2657 142C73.3707 142 54 122.634 54 98.745C54 83.8143 61.5678 70.6507 73.0764 62.8772L75.5092 61.5572L75.1705 61.3298C69.5163 55.6763 66.018 47.8665 66.018 39.2398C66.018 21.9864 80.0089 8 97.2657 8Z" fill="url(#paint0_linear_2_667)"/>
<path fill-rule="evenodd" clip-rule="evenodd" d="M83.1733 32.7232C83.1733 30.8116 84.7235 29.262 86.6346 29.262C88.5457 29.262 90.0958 30.8116 90.0958 32.7232C90.0958 34.6348 88.5457 36.1845 86.6346 36.1845C84.7235 36.1845 83.1733 34.6348 83.1733 32.7232Z" fill="#404040"/>
<path fill-rule="evenodd" clip-rule="evenodd" d="M104.436 32.2288C104.436 30.3172 105.986 28.7675 107.897 28.7675C109.808 28.7675 111.358 30.3172 111.358 32.2288C111.358 34.1404 109.808 35.69 107.897 35.69C105.986 35.69 104.436 34.1404 104.436 32.2288Z" fill="#404040"/>
</g>
<g filter="url(#filter1_d_2_667)">
<path fill-rule="evenodd" clip-rule="evenodd" d="M180.339 48.0726C181.466 48.3733 182.134 49.5208 181.83 50.6356L180.733 54.6582L187.142 56.9813C205.756 65.6476 217.167 84.7914 215.905 105.014L214.804 111.641L215.134 111.728L214.356 114.577L214.303 114.643L214.251 114.964L214.088 114.92L212.962 116.366C212.301 116.742 211.493 116.869 210.697 116.657L167.717 105.199L159.396 135.699L159.229 135.654L157.825 138.36C155.395 141.309 151.199 142.722 147.043 141.635C142.894 140.549 139.953 137.272 139.308 133.523L139.404 131.274L139.284 130.367L139.451 130.153L139.471 129.679L139.762 129.753L140.543 128.751C141.142 128.411 141.87 128.296 142.591 128.488C143.309 128.679 143.881 129.141 144.225 129.732L144.383 130.935L144.738 131.026C144.143 133.327 145.794 135.743 148.433 136.435C151.079 137.129 153.722 135.833 154.349 133.535L154.396 133.548L162.51 103.811L119.21 92.268C118.414 92.0557 117.781 91.545 117.401 90.8904L117.163 89.0818L117 89.0385L117.116 88.7277L117.106 88.6515L117.883 85.8032L118.172 85.8803L120.081 80.7327C128.848 62.3328 148.215 51.0532 168.674 52.3L176.641 53.5951L177.746 49.5467C178.049 48.4321 179.211 47.7721 180.339 48.0726Z" fill="url(#paint1_linear_2_667)"/>
</g>
<path fill-rule="evenodd" clip-rule="evenodd" d="M86.9999 181.8L114.938 165.9L86.9999 150V181.8Z" fill="#222222"/>
<path fill-rule="evenodd" clip-rule="evenodd" d="M120.938 181.8L148.876 165.9L120.938 150V181.8Z" fill="#222222"/>
<path fill-rule="evenodd" clip-rule="evenodd" d="M154.876 181.8L182.814 165.9L154.876 150V181.8Z" fill="#222222"/>
</g>
<defs>
<filter id="filter0_d_2_667" x="44" y="-2" width="106.531" height="154" filterUnits="userSpaceOnUse" color-interpolation-filters="sRGB">
<feFlood flood-opacity="0" result="BackgroundImageFix"/>
<feColorMatrix in="SourceAlpha" type="matrix" values="0 0 0 0 0 0 0 0 0 0 0 0 0 0 0 0 0 0 127 0" result="hardAlpha"/>
<feOffset/>
<feGaussianBlur stdDeviation="5"/>
<feComposite in2="hardAlpha" operator="out"/>
<feColorMatrix type="matrix" values="0 0 0 0 1 0 0 0 0 1 0 0 0 0 1 0 0 0 1 0"/>
<feBlend mode="normal" in2="BackgroundImageFix" result="effect1_dropShadow_2_667"/>
<feBlend mode="normal" in="SourceGraphic" in2="effect1_dropShadow_2_667" result="shape"/>
</filter>
<filter id="filter1_d_2_667" x="107" y="38" width="119" height="114" filterUnits="userSpaceOnUse" color-interpolation-filters="sRGB">
<feFlood flood-opacity="0" result="BackgroundImageFix"/>
<feColorMatrix in="SourceAlpha" type="matrix" values="0 0 0 0 0 0 0 0 0 0 0 0 0 0 0 0 0 0 127 0" result="hardAlpha"/>
<feOffset/>
<feGaussianBlur stdDeviation="5"/>
<feComposite in2="hardAlpha" operator="out"/>
<feColorMatrix type="matrix" values="0 0 0 0 1 0 0 0 0 1 0 0 0 0 1 0 0 0 1 0"/>
<feBlend mode="normal" in2="BackgroundImageFix" result="effect1_dropShadow_2_667"/>
<feBlend mode="normal" in="SourceGraphic" in2="effect1_dropShadow_2_667" result="shape"/>
</filter>
<linearGradient id="paint0_linear_2_667" x1="36.1993" y1="35.5659" x2="158.332" y2="114.434" gradientUnits="userSpaceOnUse">
<stop stop-color="#C8C8D3"/>
<stop offset="1" stop-color="#B4C7E7"/>
</linearGradient>
<linearGradient id="paint1_linear_2_667" x1="202.5" y1="156.76" x2="133.346" y2="34.189" gradientUnits="userSpaceOnUse">
<stop stop-color="#00B0F0"/>
<stop offset="1" stop-color="#8FAADC"/>
</linearGradient>
<clipPath id="clip0_2_667">
<rect width="270" height="192" fill="white"/>
</clipPath>
</defs>
</svg>
